# WaveFront *.obj file (generated by Autodesk ATF)

mtllib 739806fb-f0c4-4bd1-b57b-c941347d3512.mtl

g Body1 (1) (2) (1)

v 255.000004 323.000005 45.000000
v 255.000004 335.000005 45.000000
v 255.000004 335.000005 48.000000
v 255.000004 323.000005 48.000000
v 252.000004 323.000005 45.000000
v 252.000004 323.000005 48.000000
v 252.000004 335.000005 45.000000
v 252.000004 335.000005 48.000000
v 261.000004 323.000005 45.000000
v 261.000004 335.000005 45.000000
v 261.000004 335.000005 48.000000
v 261.000004 323.000005 48.000000
v 258.000004 323.000005 45.000000
v 258.000004 323.000005 48.000000
v 258.000004 335.000005 45.000000
v 258.000004 335.000005 48.000000
v 267.727687 329.235352 45.000000
v 267.547253 331.240132 45.000000
v 267.011752 333.180477 45.000000
v 266.138395 334.994022 45.000000
v 264.955251 336.622479 45.000000
v 263.500350 338.013507 45.000000
v 261.820451 339.122399 45.000000
v 259.969549 339.913512 45.000000
v 258.007132 340.361421 45.000000
v 255.996276 340.451729 45.000000
v 254.001609 340.181533 45.000000
v 252.087243 339.559518 45.000000
v 250.314707 338.605675 45.000000
v 248.740972 337.350663 45.000000
v 247.416618 335.834818 45.000000
v 246.384211 334.106861 45.000000
v 245.676935 332.222329 45.000000
v 245.317520 330.241793 45.000000
v 245.317520 328.228910 45.000000
v 245.676935 326.248374 45.000000
v 246.384211 324.363843 45.000000
v 247.416618 322.635885 45.000000
v 248.740972 321.120040 45.000000
v 250.314707 319.865028 45.000000
v 252.087243 318.911185 45.000000
v 254.001609 318.289170 45.000000
v 255.996276 318.018974 45.000000
v 258.007132 318.109282 45.000000
v 259.969549 318.557191 45.000000
v 261.820451 319.348304 45.000000
v 263.500350 320.457196 45.000000
v 264.955251 321.848224 45.000000
v 266.138395 323.476681 45.000000
v 267.011752 325.290227 45.000000
v 267.547253 327.230571 45.000000
v 267.727687 329.235352 15.000000
v 267.547253 331.240132 15.000000
v 267.011752 333.180477 15.000000
v 266.138395 334.994022 15.000000
v 264.955251 336.622479 15.000000
v 263.500350 338.013507 15.000000
v 261.820451 339.122399 15.000000
v 259.969549 339.913512 15.000000
v 258.007132 340.361421 15.000000
v 255.996276 340.451729 15.000000
v 254.001609 340.181533 15.000000
v 252.087243 339.559518 15.000000
v 250.314707 338.605675 15.000000
v 248.740972 337.350663 15.000000
v 247.416618 335.834818 15.000000
v 246.384211 334.106861 15.000000
v 245.676935 332.222329 15.000000
v 245.317520 330.241793 15.000000
v 245.317520 328.228910 15.000000
v 245.676935 326.248374 15.000000
v 246.384211 324.363843 15.000000
v 247.416618 322.635885 15.000000
v 248.740972 321.120040 15.000000
v 250.314707 319.865028 15.000000
v 252.087243 318.911185 15.000000
v 254.001609 318.289170 15.000000
v 255.996276 318.018974 15.000000
v 258.007132 318.109282 15.000000
v 259.969549 318.557191 15.000000
v 261.820451 319.348304 15.000000
v 263.500350 320.457196 15.000000
v 264.955251 321.848224 15.000000
v 266.138395 323.476681 15.000000
v 267.011752 325.290227 15.000000
v 267.547253 327.230571 15.000000
vt 0.000000 0.000000 0.000000
vt 1.200000 0.000000 0.000000
vt 0.000000 0.300000 0.000000
vt 1.200000 0.300000 0.000000
vt 0.000000 0.000000 0.000000
vt 0.300000 0.000000 0.000000
vt 0.000000 0.300000 0.000000
vt 0.300000 0.300000 0.000000
vt 0.000000 0.000000 0.000000
vt 1.200000 0.000000 0.000000
vt 0.000000 0.300000 0.000000
vt 1.200000 0.300000 0.000000
vt 0.000000 0.000000 0.000000
vt 0.300000 0.000000 0.000000
vt 0.000000 0.300000 0.000000
vt 0.300000 0.300000 0.000000
vt -0.150000 -1.190220 0.000000
vt -0.450000 -1.190220 0.000000
vt -0.150000 -2.390220 0.000000
vt -0.450000 -2.390220 0.000000
vt 0.000000 0.000000 0.000000
vt 1.200000 0.000000 0.000000
vt 0.000000 0.300000 0.000000
vt 1.200000 0.300000 0.000000
vt 0.000000 0.000000 0.000000
vt 0.300000 0.000000 0.000000
vt 0.000000 0.300000 0.000000
vt 0.300000 0.300000 0.000000
vt 0.000000 0.000000 0.000000
vt 1.200000 0.000000 0.000000
vt 0.000000 0.300000 0.000000
vt 1.200000 0.300000 0.000000
vt 0.000000 0.000000 0.000000
vt 0.300000 0.000000 0.000000
vt 0.000000 0.300000 0.000000
vt 0.300000 0.300000 0.000000
vt 0.450000 -1.190220 0.000000
vt 0.150000 -1.190220 0.000000
vt 0.450000 -2.390220 0.000000
vt 0.150000 -2.390220 0.000000
vt -7.000000 -1.800000 0.000000
vt -7.300000 -1.800000 0.000000
vt -7.000000 -3.000000 0.000000
vt -7.300000 -3.000000 0.000000
vt -7.099628 -3.545173 0.000000
vt -7.300713 -3.536142 0.000000
vt -7.496955 -3.491351 0.000000
vt -7.600000 -3.000000 0.000000
vt -7.682045 -3.412240 0.000000
vt -7.850035 -3.301351 0.000000
vt -7.995525 -3.162248 0.000000
vt -8.113839 -2.999402 0.000000
vt -8.201175 -2.818048 0.000000
vt -8.254725 -2.624013 0.000000
vt -8.272769 -2.423535 0.000000
vt -7.600000 -1.800000 0.000000
vt -8.254725 -2.223057 0.000000
vt -8.201175 -2.029023 0.000000
vt -8.113839 -1.847668 0.000000
vt -7.995525 -1.684822 0.000000
vt -7.850035 -1.545720 0.000000
vt -7.682045 -1.434830 0.000000
vt -7.496955 -1.355719 0.000000
vt -7.300713 -1.310928 0.000000
vt -7.099628 -1.301897 0.000000
vt -6.900161 -1.328917 0.000000
vt -6.708724 -1.391119 0.000000
vt -6.700000 -1.800000 0.000000
vt -6.531471 -1.486503 0.000000
vt -6.374097 -1.612004 0.000000
vt -6.241662 -1.763589 0.000000
vt -6.138421 -1.936384 0.000000
vt -6.067693 -2.124837 0.000000
vt -6.031752 -2.322891 0.000000
vt -6.700000 -3.000000 0.000000
vt -6.031752 -2.524179 0.000000
vt -6.067693 -2.722233 0.000000
vt -6.138421 -2.910686 0.000000
vt -6.241662 -3.083482 0.000000
vt -6.374097 -3.235066 0.000000
vt -6.531471 -3.360568 0.000000
vt -6.708724 -3.455952 0.000000
vt -6.900161 -3.518153 0.000000
vt 0.500000 -3.325722 0.000000
vt -2.500000 -3.325722 0.000000
vt 0.500000 -3.527281 0.000000
vt -2.500000 -3.527281 0.000000
vt 0.500000 3.527281 0.000000
vt -2.500000 3.527281 0.000000
vt 0.500000 3.325722 0.000000
vt -2.500000 3.325722 0.000000
vt 0.500000 3.124163 0.000000
vt -2.500000 3.124163 0.000000
vt 0.500000 2.922604 0.000000
vt -2.500000 2.922604 0.000000
vt 0.500000 2.721045 0.000000
vt -2.500000 2.721045 0.000000
vt 0.500000 2.519486 0.000000
vt -2.500000 2.519486 0.000000
vt 0.500000 2.317927 0.000000
vt -2.500000 2.317927 0.000000
vt 0.500000 2.116368 0.000000
vt -2.500000 2.116368 0.000000
vt 0.500000 1.914809 0.000000
vt -2.500000 1.914809 0.000000
vt 0.500000 1.713251 0.000000
vt -2.500000 1.713251 0.000000
vt 0.500000 1.511692 0.000000
vt -2.500000 1.511692 0.000000
vt 0.500000 1.310133 0.000000
vt -2.500000 1.310133 0.000000
vt 0.500000 1.108574 0.000000
vt -2.500000 1.108574 0.000000
vt 0.500000 0.907015 0.000000
vt -2.500000 0.907015 0.000000
vt 0.500000 0.705456 0.000000
vt -2.500000 0.705456 0.000000
vt 0.500000 0.503897 0.000000
vt -2.500000 0.503897 0.000000
vt 0.500000 0.302338 0.000000
vt -2.500000 0.302338 0.000000
vt 0.500000 0.100779 0.000000
vt -2.500000 0.100779 0.000000
vt 0.500000 -0.100779 0.000000
vt -2.500000 -0.100779 0.000000
vt 0.500000 -0.302338 0.000000
vt -2.500000 -0.302338 0.000000
vt 0.500000 -0.503897 0.000000
vt -2.500000 -0.503897 0.000000
vt 0.500000 -0.705456 0.000000
vt -2.500000 -0.705456 0.000000
vt 0.500000 -0.907015 0.000000
vt -2.500000 -0.907015 0.000000
vt 0.500000 -1.108574 0.000000
vt -2.500000 -1.108574 0.000000
vt 0.500000 -1.310133 0.000000
vt -2.500000 -1.310133 0.000000
vt 0.500000 -1.511692 0.000000
vt -2.500000 -1.511692 0.000000
vt 0.500000 -1.713251 0.000000
vt -2.500000 -1.713251 0.000000
vt 0.500000 -1.914809 0.000000
vt -2.500000 -1.914809 0.000000
vt 0.500000 -2.116368 0.000000
vt -2.500000 -2.116368 0.000000
vt 0.500000 -2.317927 0.000000
vt -2.500000 -2.317927 0.000000
vt 0.500000 -2.519486 0.000000
vt -2.500000 -2.519486 0.000000
vt 0.500000 -2.721045 0.000000
vt -2.500000 -2.721045 0.000000
vt 0.500000 -2.922604 0.000000
vt -2.500000 -2.922604 0.000000
vt 0.500000 -3.124163 0.000000
vt -2.500000 -3.124163 0.000000
vt 8.272769 -2.423535 0.000000
vt 8.254725 -2.223057 0.000000
vt 8.254725 -2.624013 0.000000
vt 8.201175 -2.029023 0.000000
vt 8.201175 -2.818048 0.000000
vt 8.113839 -1.847668 0.000000
vt 8.113839 -2.999402 0.000000
vt 7.995525 -1.684822 0.000000
vt 7.850035 -1.545720 0.000000
vt 7.682045 -1.434830 0.000000
vt 7.496955 -1.355719 0.000000
vt 7.300713 -1.310928 0.000000
vt 7.099628 -1.301897 0.000000
vt 6.900161 -1.328917 0.000000
vt 6.708724 -1.391119 0.000000
vt 6.531471 -1.486503 0.000000
vt 6.374097 -1.612004 0.000000
vt 7.995525 -3.162248 0.000000
vt 6.241662 -1.763589 0.000000
vt 6.138421 -1.936384 0.000000
vt 6.067693 -2.124837 0.000000
vt 6.031752 -2.322891 0.000000
vt 6.031752 -2.524179 0.000000
vt 6.067693 -2.722233 0.000000
vt 6.138421 -2.910686 0.000000
vt 6.241662 -3.083482 0.000000
vt 6.374097 -3.235066 0.000000
vt 7.850035 -3.301351 0.000000
vt 6.531471 -3.360568 0.000000
vt 7.682045 -3.412240 0.000000
vt 6.708724 -3.455952 0.000000
vt 7.496955 -3.491351 0.000000
vt 6.900161 -3.518153 0.000000
vt 7.300713 -3.536142 0.000000
vt 7.099628 -3.545173 0.000000
vn 0.100000 0.000000 0.000000
vn 0.100000 0.000000 0.000000
vn 0.100000 0.000000 0.000000
vn 0.100000 0.000000 0.000000
vn 0.000000 -0.100000 0.000000
vn 0.000000 -0.100000 0.000000
vn 0.000000 -0.100000 0.000000
vn 0.000000 -0.100000 0.000000
vn -0.100000 0.000000 0.000000
vn -0.100000 0.000000 0.000000
vn -0.100000 0.000000 0.000000
vn -0.100000 0.000000 0.000000
vn 0.000000 0.100000 0.000000
vn 0.000000 0.100000 0.000000
vn 0.000000 0.100000 0.000000
vn 0.000000 0.100000 0.000000
vn 0.000000 0.000000 0.100000
vn 0.000000 0.000000 0.100000
vn 0.000000 0.000000 0.100000
vn 0.000000 0.000000 0.100000
vn 0.100000 0.000000 0.000000
vn 0.100000 0.000000 0.000000
vn 0.100000 0.000000 0.000000
vn 0.100000 0.000000 0.000000
vn 0.000000 -0.100000 0.000000
vn 0.000000 -0.100000 0.000000
vn 0.000000 -0.100000 0.000000
vn 0.000000 -0.100000 0.000000
vn -0.100000 0.000000 0.000000
vn -0.100000 0.000000 0.000000
vn -0.100000 0.000000 0.000000
vn -0.100000 0.000000 0.000000
vn 0.000000 0.100000 0.000000
vn 0.000000 0.100000 0.000000
vn 0.000000 0.100000 0.000000
vn 0.000000 0.100000 0.000000
vn 0.000000 0.000000 0.100000
vn 0.000000 0.000000 0.100000
vn 0.000000 0.000000 0.100000
vn 0.000000 0.000000 0.100000
vn 0.000000 0.000000 0.100000
vn 0.000000 0.000000 0.100000
vn 0.000000 0.000000 0.100000
vn 0.000000 0.000000 0.100000
vn 0.000000 0.000000 0.100000
vn 0.000000 0.000000 0.100000
vn 0.000000 0.000000 0.100000
vn 0.000000 0.000000 0.100000
vn 0.000000 0.000000 0.100000
vn 0.000000 0.000000 0.100000
vn 0.000000 0.000000 0.100000
vn 0.000000 0.000000 0.100000
vn 0.000000 0.000000 0.100000
vn 0.000000 0.000000 0.100000
vn 0.000000 0.000000 0.100000
vn 0.000000 0.000000 0.100000
vn 0.000000 0.000000 0.100000
vn 0.000000 0.000000 0.100000
vn 0.000000 0.000000 0.100000
vn 0.000000 0.000000 0.100000
vn 0.000000 0.000000 0.100000
vn 0.000000 0.000000 0.100000
vn 0.000000 0.000000 0.100000
vn 0.000000 0.000000 0.100000
vn 0.000000 0.000000 0.100000
vn 0.000000 0.000000 0.100000
vn 0.000000 0.000000 0.100000
vn 0.000000 0.000000 0.100000
vn 0.000000 0.000000 0.100000
vn 0.000000 0.000000 0.100000
vn 0.000000 0.000000 0.100000
vn 0.000000 0.000000 0.100000
vn 0.000000 0.000000 0.100000
vn 0.000000 0.000000 0.100000
vn 0.000000 0.000000 0.100000
vn 0.000000 0.000000 0.100000
vn 0.000000 0.000000 0.100000
vn 0.000000 0.000000 0.100000
vn 0.000000 0.000000 0.100000
vn 0.000000 0.000000 0.100000
vn 0.000000 0.000000 0.100000
vn 0.000000 0.000000 0.100000
vn 0.000000 0.000000 0.100000
vn 0.098393 -0.017856 0.000000
vn 0.098393 -0.017856 0.000000
vn 0.100000 -0.000000 0.000000
vn 0.100000 -0.000000 0.000000
vn 0.098393 0.017856 0.000000
vn 0.098393 0.017856 0.000000
vn 0.093623 0.035137 0.000000
vn 0.093623 0.035137 0.000000
vn 0.085845 0.051290 0.000000
vn 0.085845 0.051290 0.000000
vn 0.075307 0.065794 0.000000
vn 0.075307 0.065794 0.000000
vn 0.062349 0.078183 0.000000
vn 0.062349 0.078183 0.000000
vn 0.047387 0.088060 0.000000
vn 0.047387 0.088060 0.000000
vn 0.030902 0.095106 0.000000
vn 0.030902 0.095106 0.000000
vn 0.013423 0.099095 0.000000
vn 0.013423 0.099095 0.000000
vn -0.004486 0.099899 -0.000000
vn -0.004486 0.099899 -0.000000
vn -0.022252 0.097493 -0.000000
vn -0.022252 0.097493 -0.000000
vn -0.039303 0.091953 -0.000000
vn -0.039303 0.091953 -0.000000
vn -0.055090 0.083457 -0.000000
vn -0.055090 0.083457 -0.000000
vn -0.069106 0.072279 -0.000000
vn -0.069106 0.072279 -0.000000
vn -0.080902 0.058779 -0.000000
vn -0.080902 0.058779 -0.000000
vn -0.090097 0.043388 -0.000000
vn -0.090097 0.043388 -0.000000
vn -0.096396 0.026604 -0.000000
vn -0.096396 0.026604 -0.000000
vn -0.099597 0.008964 -0.000000
vn -0.099597 0.008964 -0.000000
vn -0.099597 -0.008964 0.000000
vn -0.099597 -0.008964 0.000000
vn -0.096396 -0.026604 0.000000
vn -0.096396 -0.026604 0.000000
vn -0.090097 -0.043388 0.000000
vn -0.090097 -0.043388 0.000000
vn -0.080902 -0.058779 0.000000
vn -0.080902 -0.058779 0.000000
vn -0.069106 -0.072279 0.000000
vn -0.069106 -0.072279 0.000000
vn -0.055090 -0.083457 0.000000
vn -0.055090 -0.083457 0.000000
vn -0.039303 -0.091953 0.000000
vn -0.039303 -0.091953 0.000000
vn -0.022252 -0.097493 0.000000
vn -0.022252 -0.097493 0.000000
vn -0.004486 -0.099899 0.000000
vn -0.004486 -0.099899 0.000000
vn 0.013423 -0.099095 0.000000
vn 0.013423 -0.099095 0.000000
vn 0.030902 -0.095106 0.000000
vn 0.030902 -0.095106 0.000000
vn 0.047387 -0.088060 0.000000
vn 0.047387 -0.088060 0.000000
vn 0.062349 -0.078183 0.000000
vn 0.062349 -0.078183 0.000000
vn 0.075307 -0.065794 0.000000
vn 0.075307 -0.065794 0.000000
vn 0.085845 -0.051290 0.000000
vn 0.085845 -0.051290 0.000000
vn 0.093623 -0.035137 0.000000
vn 0.093623 -0.035137 0.000000
vn 0.000000 0.000000 -0.100000
vn 0.000000 0.000000 -0.100000
vn 0.000000 0.000000 -0.100000
vn 0.000000 0.000000 -0.100000
vn 0.000000 0.000000 -0.100000
vn 0.000000 0.000000 -0.100000
vn 0.000000 0.000000 -0.100000
vn 0.000000 0.000000 -0.100000
vn 0.000000 0.000000 -0.100000
vn 0.000000 0.000000 -0.100000
vn 0.000000 0.000000 -0.100000
vn 0.000000 0.000000 -0.100000
vn 0.000000 0.000000 -0.100000
vn 0.000000 0.000000 -0.100000
vn 0.000000 0.000000 -0.100000
vn 0.000000 0.000000 -0.100000
vn 0.000000 0.000000 -0.100000
vn 0.000000 0.000000 -0.100000
vn 0.000000 0.000000 -0.100000
vn 0.000000 0.000000 -0.100000
vn 0.000000 0.000000 -0.100000
vn 0.000000 0.000000 -0.100000
vn 0.000000 0.000000 -0.100000
vn 0.000000 0.000000 -0.100000
vn 0.000000 0.000000 -0.100000
vn 0.000000 0.000000 -0.100000
vn 0.000000 0.000000 -0.100000
vn 0.000000 0.000000 -0.100000
vn 0.000000 0.000000 -0.100000
vn 0.000000 0.000000 -0.100000
vn 0.000000 0.000000 -0.100000
vn 0.000000 0.000000 -0.100000
vn 0.000000 0.000000 -0.100000
vn 0.000000 0.000000 -0.100000
vn 0.000000 0.000000 -0.100000
usemtl Steel_-_Satin
f 1/1/1 2/2/2 4/3/3
f 4/3/3 2/2/2 3/4/4
f 5/5/5 1/6/6 6/7/7
f 6/7/7 1/6/6 4/8/8
f 7/9/9 5/10/10 8/11/11
f 8/11/11 5/10/10 6/12/12
f 2/13/13 7/14/14 3/15/15
f 3/15/15 7/14/14 8/16/16
f 3/17/17 8/18/18 4/19/19
f 4/19/19 8/18/18 6/20/20
f 9/21/21 10/22/22 12/23/23
f 12/23/23 10/22/22 11/24/24
f 13/25/25 9/26/26 14/27/27
f 14/27/27 9/26/26 12/28/28
f 15/29/29 13/30/30 16/31/31
f 16/31/31 13/30/30 14/32/32
f 10/33/33 15/34/34 11/35/35
f 11/35/35 15/34/34 16/36/36
f 11/37/37 16/38/38 12/39/39
f 12/39/39 16/38/38 14/40/40
f 1/41/41 13/42/42 2/43/43
f 2/43/43 13/42/42 15/44/44
f 2/43/43 15/44/44 26/45/45
f 26/45/45 15/44/44 25/46/46
f 25/46/46 15/44/44 24/47/47
f 24/47/47 15/44/44 10/48/48
f 24/47/47 10/48/48 23/49/49
f 23/49/49 10/48/48 22/50/50
f 22/50/50 10/48/48 21/51/51
f 21/51/51 10/48/48 20/52/52
f 20/52/52 10/48/48 19/53/53
f 19/53/53 10/48/48 18/54/54
f 18/54/54 10/48/48 17/55/55
f 17/55/55 10/48/48 9/56/56
f 17/55/55 9/56/56 51/57/57
f 51/57/57 9/56/56 50/58/58
f 50/58/58 9/56/56 49/59/59
f 49/59/59 9/56/56 48/60/60
f 48/60/60 9/56/56 47/61/61
f 47/61/61 9/56/56 46/62/62
f 46/62/62 9/56/56 45/63/63
f 45/63/63 9/56/56 13/42/42
f 45/63/63 13/42/42 44/64/64
f 44/64/64 13/42/42 43/65/65
f 43/65/65 13/42/42 1/41/41
f 43/65/65 1/41/41 42/66/66
f 42/66/66 1/41/41 41/67/67
f 41/67/67 1/41/41 5/68/68
f 41/67/67 5/68/68 40/69/69
f 40/69/69 5/68/68 39/70/70
f 39/70/70 5/68/68 38/71/71
f 38/71/71 5/68/68 37/72/72
f 37/72/72 5/68/68 36/73/73
f 36/73/73 5/68/68 35/74/74
f 35/74/74 5/68/68 7/75/75
f 35/74/74 7/75/75 34/76/76
f 34/76/76 7/75/75 33/77/77
f 33/77/77 7/75/75 32/78/78
f 32/78/78 7/75/75 31/79/79
f 31/79/79 7/75/75 30/80/80
f 30/80/80 7/75/75 29/81/81
f 29/81/81 7/75/75 28/82/82
f 28/82/82 7/75/75 2/43/43
f 28/82/82 2/43/43 27/83/83
f 27/83/83 2/43/43 26/45/45
f 51/84/84 86/85/85 17/86/86
f 17/86/86 86/85/85 52/87/87
f 17/88/86 52/89/87 18/90/88
f 18/90/88 52/89/87 53/91/89
f 18/90/88 53/91/89 19/92/90
f 19/92/90 53/91/89 54/93/91
f 19/92/90 54/93/91 20/94/92
f 20/94/92 54/93/91 55/95/93
f 20/94/92 55/95/93 21/96/94
f 21/96/94 55/95/93 56/97/95
f 21/96/94 56/97/95 22/98/96
f 22/98/96 56/97/95 57/99/97
f 22/98/96 57/99/97 23/100/98
f 23/100/98 57/99/97 58/101/99
f 23/100/98 58/101/99 24/102/100
f 24/102/100 58/101/99 59/103/101
f 24/102/100 59/103/101 25/104/102
f 25/104/102 59/103/101 60/105/103
f 25/104/102 60/105/103 26/106/104
f 26/106/104 60/105/103 61/107/105
f 26/106/104 61/107/105 27/108/106
f 27/108/106 61/107/105 62/109/107
f 27/108/106 62/109/107 28/110/108
f 28/110/108 62/109/107 63/111/109
f 28/110/108 63/111/109 29/112/110
f 29/112/110 63/111/109 64/113/111
f 29/112/110 64/113/111 30/114/112
f 30/114/112 64/113/111 65/115/113
f 30/114/112 65/115/113 31/116/114
f 31/116/114 65/115/113 66/117/115
f 31/116/114 66/117/115 32/118/116
f 32/118/116 66/117/115 67/119/117
f 32/118/116 67/119/117 33/120/118
f 33/120/118 67/119/117 68/121/119
f 33/120/118 68/121/119 34/122/120
f 34/122/120 68/121/119 69/123/121
f 34/122/120 69/123/121 35/124/122
f 35/124/122 69/123/121 70/125/123
f 35/124/122 70/125/123 36/126/124
f 36/126/124 70/125/123 71/127/125
f 36/126/124 71/127/125 37/128/126
f 37/128/126 71/127/125 72/129/127
f 37/128/126 72/129/127 38/130/128
f 38/130/128 72/129/127 73/131/129
f 38/130/128 73/131/129 39/132/130
f 39/132/130 73/131/129 74/133/131
f 39/132/130 74/133/131 40/134/132
f 40/134/132 74/133/131 75/135/133
f 40/134/132 75/135/133 41/136/134
f 41/136/134 75/135/133 76/137/135
f 41/136/134 76/137/135 42/138/136
f 42/138/136 76/137/135 77/139/137
f 42/138/136 77/139/137 43/140/138
f 43/140/138 77/139/137 78/141/139
f 43/140/138 78/141/139 44/142/140
f 44/142/140 78/141/139 79/143/141
f 44/142/140 79/143/141 45/144/142
f 45/144/142 79/143/141 80/145/143
f 45/144/142 80/145/143 46/146/144
f 46/146/144 80/145/143 81/147/145
f 46/146/144 81/147/145 47/148/146
f 47/148/146 81/147/145 82/149/147
f 47/148/146 82/149/147 48/150/148
f 48/150/148 82/149/147 83/151/149
f 48/150/148 83/151/149 49/152/150
f 49/152/150 83/151/149 84/153/151
f 49/152/150 84/153/151 50/154/152
f 50/154/152 84/153/151 85/155/153
f 50/154/152 85/155/153 51/84/84
f 51/84/84 85/155/153 86/85/85
f 52/156/154 86/157/155 53/158/156
f 53/158/156 86/157/155 85/159/157
f 53/158/156 85/159/157 54/160/158
f 54/160/158 85/159/157 84/161/159
f 54/160/158 84/161/159 55/162/160
f 55/162/160 84/161/159 83/163/161
f 55/162/160 83/163/161 82/164/162
f 82/164/162 81/165/163 55/162/160
f 55/162/160 81/165/163 80/166/164
f 55/162/160 80/166/164 79/167/165
f 79/167/165 78/168/166 55/162/160
f 55/162/160 78/168/166 77/169/167
f 55/162/160 77/169/167 76/170/168
f 76/170/168 75/171/169 55/162/160
f 55/162/160 75/171/169 74/172/170
f 55/162/160 74/172/170 56/173/171
f 56/173/171 74/172/170 73/174/172
f 56/173/171 73/174/172 72/175/173
f 72/175/173 71/176/174 56/173/171
f 56/173/171 71/176/174 70/177/175
f 56/173/171 70/177/175 69/178/176
f 69/178/176 68/179/177 56/173/171
f 56/173/171 68/179/177 67/180/178
f 56/173/171 67/180/178 66/181/179
f 66/181/179 65/182/180 56/173/171
f 56/173/171 65/182/180 57/183/181
f 57/183/181 65/182/180 64/184/182
f 57/183/181 64/184/182 58/185/183
f 58/185/183 64/184/182 63/186/184
f 58/185/183 63/186/184 59/187/185
f 59/187/185 63/186/184 62/188/186
f 59/187/185 62/188/186 60/189/187
f 60/189/187 62/188/186 61/190/188
# 86 vertices
# 190 texture params
# 188 normals
# 168 facets

# 1 groups
